<?xml version="1.0" encoding="utf-8"?>
<!-- Generator: Adobe Illustrator 23.0.3, SVG Export Plug-In . SVG Version: 6.00 Build 0)  -->
<svg version="1.1" xmlns="http://www.w3.org/2000/svg" xmlns:xlink="http://www.w3.org/1999/xlink" x="0px" y="0px"
	 viewBox="0 0 717.32 444.14" style="enable-background:new 0 0 717.32 444.14;" xml:space="preserve">
<style type="text/css">
	.st0{fill:#FCFCFC;}
	.st1{opacity:0.8;fill:none;stroke:#C8C8C8;stroke-width:1.5006;stroke-miterlimit:2;}
	.st2{fill:none;stroke:#ED1C24;stroke-width:1.5006;stroke-miterlimit:2;}
	.st3{fill:none;stroke:#00A651;stroke-width:1.5006;stroke-miterlimit:2;}
</style>
<g id="Layer_2">
	<rect x="-26.02" y="-24.16" class="st0" width="765.64" height="499.89"/>
</g>
<g id="Layer_1">
	<line class="st1" x1="15.7" y1="121.33" x2="15.7" y2="346.12"/>
	<line class="st1" x1="21.47" y1="121.46" x2="20.32" y2="346.17"/>
	<line class="st1" x1="27.25" y1="122.03" x2="27.25" y2="346.83"/>
	<line class="st1" x1="33.04" y1="115.39" x2="33.04" y2="339.82"/>
	<line class="st1" x1="38.82" y1="122.16" x2="39.98" y2="352.49"/>
	<line class="st1" x1="44.6" y1="160.44" x2="43.44" y2="385.23"/>
	<line class="st1" x1="50.38" y1="93.98" x2="49.22" y2="347.38"/>
	<line class="st1" x1="56.16" y1="48.4" x2="55" y2="273.99"/>
	<line class="st1" x1="61.93" y1="88.19" x2="61.93" y2="308.31"/>
	<line class="st1" x1="67.72" y1="131.3" x2="67.72" y2="348.05"/>
	<line class="st1" x1="73.5" y1="134.85" x2="72.34" y2="361.41"/>
	<line class="st1" x1="79.28" y1="142.93" x2="79.28" y2="365.95"/>
	<line class="st1" x1="85.06" y1="125.97" x2="83.9" y2="361.95"/>
	<line class="st1" x1="90.84" y1="57.81" x2="90.84" y2="279.1"/>
	<line class="st1" x1="96.62" y1="81.85" x2="96.62" y2="318.2"/>
	<line class="st1" x1="102.4" y1="118.26" x2="101.25" y2="340.92"/>
	<line class="st1" x1="108.18" y1="103.91" x2="107.03" y2="341.94"/>
	<line class="st1" x1="113.96" y1="82.43" x2="111.65" y2="313.75"/>
	<line class="st1" x1="119.74" y1="127.65" x2="117.42" y2="325.85"/>
	<line class="st1" x1="125.52" y1="153.49" x2="124.36" y2="368.46"/>
	<line class="st1" x1="131.3" y1="153.81" x2="130.15" y2="377.27"/>
	<line class="st1" x1="137.09" y1="182.96" x2="135.93" y2="402.36"/>
	<line class="st1" x1="142.86" y1="167.52" x2="141.71" y2="410.05"/>
	<line class="st1" x1="148.64" y1="119.2" x2="147.48" y2="374.08"/>
	<line class="st1" x1="154.42" y1="128.11" x2="153.26" y2="350.42"/>
	<line class="st1" x1="160.2" y1="191.23" x2="157.89" y2="385.49"/>
	<line class="st1" x1="165.98" y1="170.35" x2="164.83" y2="424.86"/>
	<line class="st1" x1="171.76" y1="77.86" x2="169.45" y2="354.89"/>
	<line class="st1" x1="177.55" y1="63.86" x2="177.55" y2="291.02"/>
	<line class="st1" x1="183.32" y1="106.25" x2="181.01" y2="285.24"/>
	<line class="st1" x1="189.1" y1="156.2" x2="187.94" y2="357.3"/>
	<line class="st1" x1="194.88" y1="158.13" x2="192.58" y2="388.06"/>
	<line class="st1" x1="200.66" y1="141.78" x2="198.35" y2="367.8"/>
	<line class="st1" x1="206.45" y1="161.74" x2="205.29" y2="371.9"/>
	<line class="st1" x1="212.23" y1="124.19" x2="209.91" y2="386.08"/>
	<line class="st1" x1="218" y1="143.28" x2="215.69" y2="349.27"/>
	<line class="st1" x1="223.78" y1="138.08" x2="221.47" y2="368.33"/>
	<line class="st1" x1="229.56" y1="136.76" x2="227.26" y2="355.83"/>
	<line class="st1" x1="235.34" y1="129.85" x2="234.19" y2="365.2"/>
	<line class="st1" x1="241.13" y1="123.14" x2="238.81" y2="340.8"/>
	<line class="st1" x1="246.91" y1="162.1" x2="245.75" y2="362.14"/>
	<line class="st1" x1="252.69" y1="169.99" x2="250.37" y2="383.6"/>
	<line class="st1" x1="258.46" y1="151.27" x2="254.99" y2="392.49"/>
	<line class="st1" x1="264.24" y1="75" x2="261.94" y2="371.37"/>
	<line class="st1" x1="270.02" y1="115.88" x2="266.56" y2="297.68"/>
	<line class="st1" x1="275.81" y1="179.22" x2="272.34" y2="344.95"/>
	<line class="st1" x1="281.59" y1="166.83" x2="278.11" y2="400.84"/>
	<line class="st1" x1="287.37" y1="131.5" x2="283.89" y2="390.9"/>
	<line class="st1" x1="293.15" y1="129.77" x2="291.99" y2="349.83"/>
	<line class="st1" x1="298.92" y1="168.02" x2="297.77" y2="377.19"/>
	<line class="st1" x1="304.7" y1="142.98" x2="303.56" y2="391.41"/>
	<line class="st1" x1="310.49" y1="101.82" x2="308.18" y2="350.35"/>
	<line class="st1" x1="316.27" y1="85.86" x2="313.95" y2="326.54"/>
	<line class="st1" x1="322.05" y1="20.78" x2="318.57" y2="319.12"/>
	<line class="st1" x1="327.83" y1="21.38" x2="325.51" y2="248.17"/>
	<line class="st1" x1="333.6" y1="91.04" x2="331.3" y2="284.51"/>
	<line class="st1" x1="339.38" y1="131.05" x2="337.08" y2="315.51"/>
	<line class="st1" x1="345.17" y1="124.1" x2="342.86" y2="356.81"/>
	<line class="st1" x1="350.95" y1="52.07" x2="348.63" y2="342.4"/>
	<line class="st1" x1="356.73" y1="81.3" x2="354.41" y2="300.76"/>
	<line class="st1" x1="362.51" y1="155.11" x2="360.19" y2="319.8"/>
	<line class="st1" x1="368.29" y1="52.91" x2="364.82" y2="381.44"/>
	<line class="st1" x1="374.06" y1="64.67" x2="371.76" y2="274.68"/>
	<line class="st1" x1="379.85" y1="126.86" x2="376.38" y2="272.33"/>
	<line class="st1" x1="385.63" y1="73.43" x2="382.16" y2="352.89"/>
	<line class="st1" x1="391.41" y1="125.42" x2="385.63" y2="330.1"/>
	<line class="st1" x1="397.19" y1="97.17" x2="396.03" y2="357.22"/>
	<line class="st1" x1="402.97" y1="100.84" x2="398.35" y2="331.3"/>
	<line class="st1" x1="408.74" y1="181.1" x2="404.12" y2="301.74"/>
	<line class="st1" x1="414.53" y1="141.07" x2="411.06" y2="388.79"/>
	<line class="st1" x1="420.31" y1="49.82" x2="416.84" y2="395.35"/>
	<line class="st1" x1="426.09" y1="127.64" x2="420.31" y2="323.78"/>
	<line class="st1" x1="431.87" y1="177.97" x2="427.25" y2="277.85"/>
	<line class="st1" x1="437.65" y1="102.9" x2="433.03" y2="396.27"/>
	<line class="st1" x1="443.43" y1="91.66" x2="441.12" y2="357.08"/>
	<line class="st1" x1="449.22" y1="131.1" x2="444.58" y2="309.48"/>
	<line class="st1" x1="454.99" y1="153.83" x2="450.36" y2="338.3"/>
	<line class="st1" x1="460.77" y1="153.26" x2="456.15" y2="364.16"/>
	<line class="st1" x1="466.55" y1="60.06" x2="463.09" y2="396.13"/>
	<line class="st1" x1="472.33" y1="99.44" x2="468.87" y2="283.5"/>
	<line class="st1" x1="478.11" y1="149.95" x2="473.49" y2="295.7"/>
	<line class="st1" x1="483.9" y1="130.74" x2="478.11" y2="353.74"/>
	<line class="st1" x1="489.68" y1="64.13" x2="486.2" y2="378.42"/>
	<line class="st1" x1="495.45" y1="106.23" x2="490.83" y2="305.17"/>
	<line class="st1" x1="501.23" y1="106.73" x2="497.77" y2="309.46"/>
	<line class="st1" x1="507.01" y1="157.58" x2="501.23" y2="339.41"/>
	<line class="st1" x1="512.79" y1="120.93" x2="507.01" y2="331.41"/>
	<line class="st1" x1="518.58" y1="54.51" x2="512.79" y2="388.08"/>
	<line class="st1" x1="524.36" y1="59.83" x2="518.58" y2="337.65"/>
	<line class="st1" x1="530.13" y1="96.78" x2="525.51" y2="277.39"/>
	<line class="st1" x1="535.91" y1="121.17" x2="530.13" y2="290"/>
	<line class="st1" x1="541.69" y1="155.92" x2="537.07" y2="322.28"/>
	<line class="st1" x1="547.47" y1="139.61" x2="541.69" y2="359.04"/>
	<line class="st1" x1="553.26" y1="120.91" x2="548.63" y2="381.77"/>
	<line class="st1" x1="559.04" y1="159.14" x2="554.41" y2="357.58"/>
	<line class="st1" x1="564.82" y1="137.02" x2="560.2" y2="348.01"/>
	<line class="st1" x1="570.59" y1="113.4" x2="564.82" y2="384.49"/>
	<line class="st1" x1="576.37" y1="63" x2="571.75" y2="354.38"/>
	<line class="st1" x1="582.15" y1="68.99" x2="577.53" y2="331.97"/>
	<line class="st1" x1="587.94" y1="123.34" x2="582.15" y2="280.04"/>
	<line class="st1" x1="593.72" y1="101.56" x2="587.94" y2="297.12"/>
	<line class="st1" x1="599.5" y1="59.37" x2="592.56" y2="330.23"/>
	<line class="st1" x1="605.28" y1="85.83" x2="600.65" y2="320.81"/>
	<line class="st1" x1="611.05" y1="134.52" x2="604.12" y2="284.39"/>
	<line class="st1" x1="616.83" y1="154.21" x2="609.9" y2="294.98"/>
	<line class="st1" x1="622.62" y1="146.79" x2="616.83" y2="349.51"/>
	<line class="st1" x1="628.4" y1="143.66" x2="622.62" y2="378.94"/>
	<line class="st1" x1="634.18" y1="157.35" x2="626.08" y2="375.5"/>
	<line class="st1" x1="639.96" y1="150.23" x2="633.02" y2="369.05"/>
	<line class="st1" x1="645.73" y1="134.96" x2="639.96" y2="377.87"/>
	<line class="st1" x1="651.51" y1="137.57" x2="645.73" y2="373.98"/>
	<line class="st1" x1="657.3" y1="164.96" x2="651.51" y2="360.03"/>
	<line class="st1" x1="663.08" y1="171.72" x2="656.14" y2="363.66"/>
	<line class="st1" x1="668.86" y1="85.83" x2="661.92" y2="375.48"/>
	<line class="st1" x1="674.64" y1="81.15" x2="666.54" y2="401.38"/>
	<line class="st1" x1="680.42" y1="54.1" x2="673.48" y2="330.86"/>
	<line class="st1" x1="686.19" y1="84.17" x2="679.26" y2="303.67"/>
	<line class="st1" x1="691.98" y1="167.36" x2="685.05" y2="294.68"/>
	<line class="st1" x1="697.76" y1="136.21" x2="689.67" y2="274.94"/>
	<line class="st1" x1="703.54" y1="104.71" x2="697.76" y2="372.53"/>
	<line class="st1" x1="709.32" y1="112.43" x2="703.54" y2="361.74"/>
	<polyline class="st2" points="15.7,121.33 28.41,121.8 29.57,121.1 31.88,117.82 33.04,115.39 35.35,111.66 36.51,112.22 
		37.66,115.61 38.82,122.16 43.44,158.61 44.6,160.44 45.76,156.21 46.92,145.97 53.84,53.31 55,48.58 56.16,48.4 57.31,52.12 
		59.63,67.66 60.78,77.68 66.57,125.18 67.72,131.3 70.03,137.74 71.19,137.99 74.65,133.41 75.81,133.39 76.96,135.27 
		78.12,138.79 80.44,146.15 81.6,146.88 82.74,143.96 83.9,136.91 87.37,96.49 88.53,81.05 90.84,57.81 91.99,53.09 93.15,53.96 
		94.31,60.03 100.09,111.06 101.25,115.81 103.55,118.86 104.71,117.79 107.03,110.3 108.18,103.91 111.65,83.63 112.8,81.11 
		113.96,82.43 115.12,87.63 118.58,117.21 119.74,127.65 123.21,149.17 124.36,152.27 125.52,153.49 126.68,153.26 128.99,151.41 
		130.15,151.68 131.3,153.81 132.45,158.13 137.09,182.96 138.23,185.26 139.39,184.59 140.55,181.1 142.86,167.52 144.02,158.42 
		149.8,113.28 150.96,110.99 152.1,112.83 153.26,118.74 156.74,153.44 157.89,167.29 161.36,198.43 162.51,200.5 163.67,196.45 
		164.83,186.12 168.29,129.87 169.45,109.59 172.91,68.05 174.07,62.28 175.23,60.09 176.39,60.8 178.7,68.9 179.85,75.75 
		183.32,106.25 184.48,118.4 187.94,149.58 189.1,156.2 191.42,163.1 192.58,163.51 193.72,161.83 194.88,158.13 199.51,140.45 
		200.66,141.78 205.29,162.25 206.45,161.74 208.75,148.77 209.91,139.17 212.23,124.19 213.38,121.95 214.53,123.86 215.69,129.15 
		219.16,148.33 220.32,150.15 221.47,148.43 222.63,143.89 226.1,129.78 227.26,129.71 229.56,136.76 230.72,140.85 231.88,142.89 
		233.03,141.66 235.34,129.85 236.5,122.19 238.81,114.05 239.97,116.44 242.28,132.71 243.43,143.06 245.75,158.55 246.91,162.1 
		249.21,163.93 250.37,164.88 254.99,173.57 256.15,170.81 258.46,151.27 259.62,135.36 264.24,75 265.4,71.18 266.56,74.16 
		267.72,83.56 274.65,174.4 275.81,179.22 276.96,180.31 278.11,178.78 280.43,171.63 281.59,166.83 285.05,146.79 286.21,138.87 
		288.52,125.7 289.68,122.3 290.83,121.83 291.99,124.41 294.3,137.28 295.46,146.07 298.92,168.02 300.08,170.1 301.24,168.35 
		302.4,162.8 305.86,131.19 307.02,120.13 309.33,105.03 310.49,101.82 313.95,98.42 315.11,93.92 317.43,74.38 318.57,60.5 
		322.05,20.78 323.21,12.87 324.36,8.92 325.51,9.11 326.67,13.35 327.83,21.38 331.3,61.35 332.45,76.65 335.92,113.89 
		337.08,121.7 339.38,131.05 340.54,133.36 341.7,134.29 342.86,133.51 344.01,130.39 345.17,124.1 347.48,100.44 348.63,84.13 
		352.11,42.01 353.26,39.42 354.41,45.59 355.57,60.23 361.35,155.63 362.51,155.11 363.67,144.53 364.82,125.52 369.44,37.01 
		370.6,30.36 371.76,33.74 372.92,46.07 377.54,120.33 378.7,127.7 379.85,126.86 381,118.7 385.63,73.43 386.79,74.76 
		389.09,97.05 390.25,112.38 392.57,132.8 393.73,132.64 396.03,112.09 397.19,97.17 399.5,76.88 400.65,77.18 401.81,85.62 
		402.97,100.84 407.59,172.73 408.74,181.1 409.9,183.62 411.06,180.49 413.38,158.79 414.53,141.07 419.15,58.94 420.31,49.82 
		421.47,50.43 422.62,60.89 426.09,127.64 427.25,149.87 429.55,177.7 430.71,181.27 431.87,177.97 433.03,168.64 439.96,82.07 
		441.12,80.1 442.28,83.72 443.43,91.66 448.06,127.65 449.22,131.1 451.52,134.91 452.68,138.68 454.99,153.83 456.15,162.94 
		457.3,169.76 458.46,171.48 459.61,166.13 460.77,153.26 466.55,60.06 467.71,56.62 468.87,60.84 470.02,70.97 475.8,135.95 
		476.96,143.98 479.27,153.58 480.42,154.18 481.58,150.89 482.74,143.08 486.2,97.71 487.36,81.82 489.68,64.13 490.83,65.12 
		493.14,83.27 494.3,95.58 496.61,113.04 497.77,115.11 498.92,113.16 500.07,109.36 501.23,106.73 502.39,108.14 503.55,115.28 
		504.69,127.81 508.17,166.58 509.33,167.16 510.48,158.43 511.64,141.9 516.26,67.51 517.42,58.97 519.72,52.72 520.88,52.47 
		522.04,53.41 523.2,55.71 525.51,65.92 526.66,73.63 531.29,102.07 532.45,106.27 535.91,121.17 537.07,128.55 541.69,155.92 
		542.85,157.99 544.01,157.21 545.16,153.62 548.63,131.1 549.79,123.54 550.94,118.61 552.1,117.57 553.26,120.91 554.41,128.06 
		559.04,159.14 560.2,159.44 562.5,150.38 563.66,143.59 567.13,126.99 568.28,123.12 570.59,113.4 571.75,105.91 577.53,55.46 
		578.69,52.13 579.85,53.55 580.99,59.49 584.47,93.13 585.62,105.11 587.94,123.34 589.09,127.67 590.24,127.71 591.4,123.03 
		593.72,101.56 594.88,87.92 597.18,65.73 598.34,60.39 599.5,59.37 600.65,61.85 604.12,78.89 605.28,85.83 608.75,113.01 
		609.9,123.94 613.37,150.24 614.53,154.04 615.67,155.13 616.83,154.21 621.46,147.32 622.62,146.79 626.08,145.08 627.24,144.19 
		628.4,143.66 629.55,144.05 631.86,148.93 633.02,153.07 635.34,160.61 636.49,161.8 637.64,160.28 638.8,156.15 643.43,135.11 
		644.58,134.09 646.89,136.75 648.05,138.29 649.21,138.86 650.35,138.39 652.67,137.64 653.83,139.97 656.14,154.17 657.3,164.96 
		659.61,183.8 660.76,186.69 661.92,182.73 663.08,171.72 668.86,85.83 670.02,78.77 671.17,76.46 672.32,77.38 674.64,81.15 
		675.8,80.53 676.95,76.95 678.11,70.48 681.57,48.51 682.73,47.78 683.89,53.48 685.05,65.99 690.83,160.01 691.98,167.36 
		693.13,168.44 694.29,164.28 697.76,136.21 698.92,126.28 702.38,106.65 703.54,104.71 704.7,104.92 705.86,106.69 709.32,112.43 	
		"/>
	<polyline class="st3" points="15.7,346.12 27.25,346.83 28.41,345.82 29.57,346.32 30.73,340.94 33.04,339.82 34.19,336.68 
		35.35,337.66 36.51,344.47 37.66,340 38.82,351.64 39.98,352.49 41.13,365.95 42.28,369.57 43.44,385.23 44.6,382.03 45.76,383.77 
		49.22,347.38 50.38,342.2 51.54,335.52 52.69,279.27 53.84,272.89 55,273.99 56.16,276.97 57.31,272.91 58.47,275.1 59.63,290.55 
		63.09,326.13 64.25,318.38 66.57,361.21 67.72,348.05 68.87,358.4 70.03,360.71 71.19,362.7 72.34,361.41 73.5,360.81 
		74.65,358.92 75.81,358.14 76.96,358.85 78.12,369.59 79.28,365.95 80.44,370.63 81.6,371.8 82.74,371.8 83.9,361.95 85.06,360.28 
		86.22,355.47 87.37,313.6 88.53,314.14 89.68,284.06 90.84,279.1 91.99,283.57 93.15,277.54 94.31,278.08 95.47,286.24 
		96.62,318.2 97.77,304.3 98.93,298.22 100.09,331.16 101.25,340.92 102.4,339.79 104.71,343.65 105.87,342.77 107.03,341.94 
		108.18,333.73 111.65,313.75 112.8,313.58 115.12,307.08 116.27,312.57 118.58,333.79 119.74,322.66 120.9,351.85 122.06,357.43 
		123.21,370.97 124.36,368.46 125.52,378.23 126.68,377.6 127.83,378.23 128.99,376.13 130.15,377.27 131.3,376.32 132.45,376.13 
		133.61,380.02 134.77,386.85 135.93,402.36 137.09,403.19 138.23,397.62 140.55,410.01 141.71,410.05 142.86,405.8 144.02,384.92 
		145.17,383.6 146.33,364.87 147.48,374.08 148.64,350.75 150.96,335.78 152.1,335.85 153.26,350.42 154.42,338.53 155.58,339.69 
		156.74,390.07 157.89,385.49 159.04,393.51 160.2,391.75 161.36,423.15 162.51,419.34 163.67,424.41 164.83,424.86 165.98,415.84 
		167.14,405.44 168.29,382.22 169.45,354.89 170.61,353.36 172.91,316.11 174.07,316.94 175.23,289.76 176.39,284.94 177.55,291.02 
		178.7,285.69 179.85,296.34 181.01,285.24 182.17,293.47 183.32,311.02 184.48,334.31 185.64,333.99 187.94,357.3 189.1,372.38 
		190.26,381.73 191.42,375.93 192.58,388.06 193.72,387.92 194.88,388.4 196.04,387.74 197.2,387.59 198.35,367.8 199.51,378.16 
		200.66,366.46 201.82,366.38 202.97,368.99 204.13,376.61 205.29,371.9 206.45,386.26 207.59,387.16 209.91,386.08 211.07,375.19 
		212.23,368.5 213.38,352.48 214.53,347.18 215.69,349.27 216.85,346.89 218,355.77 219.16,366.84 220.32,369.13 221.47,368.33 
		222.63,371.47 223.78,371.79 224.94,370.82 228.4,354.17 229.56,354.71 230.72,360.22 231.88,354.55 233.03,364.12 234.19,365.2 
		235.34,358.87 236.5,366.07 237.66,360.13 238.81,340.8 239.97,341.1 241.13,339.97 242.28,351.95 243.43,351.92 244.59,353.14 
		245.75,362.14 246.91,386.47 248.07,382.07 249.21,386.55 250.37,383.6 252.69,389.77 253.84,390.95 254.99,392.49 256.15,398.23 
		257.31,397.02 258.46,397.42 259.62,390.31 260.78,393.1 265.4,311.16 266.56,297.68 268.87,295.96 270.02,301.36 273.49,367.71 
		274.65,327.43 276.96,398.9 278.11,400.84 279.27,405.12 280.43,405.03 281.59,403.57 282.75,399.47 286.21,372.77 287.37,382.21 
		288.52,357.56 289.68,359.59 290.83,347.13 291.99,349.83 294.3,347.35 295.46,365.98 296.62,369.72 297.77,377.19 300.08,391.82 
		301.24,387.64 303.56,391.41 304.7,372.48 305.86,375.54 307.02,370.43 308.18,350.35 309.33,352.53 311.64,326.86 312.8,327.92 
		313.95,326.54 315.11,326.72 317.43,315.24 318.57,319.12 319.73,309.04 320.89,288.12 322.05,291.69 323.21,268.1 324.36,241.69 
		325.51,248.17 326.67,233.74 327.83,234.38 330.14,240.9 331.3,284.51 332.45,298.22 333.6,269.38 335.92,292.96 337.08,315.51 
		339.38,344.26 340.54,343.07 341.7,344.7 342.86,356.81 344.01,359 345.17,359.07 346.32,340.66 347.48,347.89 348.63,342.4 
		349.79,322.87 350.95,297.27 352.11,326.8 353.26,272.89 354.41,300.76 355.57,264.79 356.73,271.51 359.03,264.51 360.19,319.8 
		361.35,374.13 362.51,371.76 364.82,381.44 365.97,380.94 367.13,341.96 368.29,374.53 369.44,353 370.6,299.01 371.76,274.68 
		372.92,272.87 374.06,264.01 375.22,304.6 376.38,272.33 377.54,303.48 378.7,336.85 379.85,306.45 382.16,352.89 383.32,350.27 
		384.47,347.73 385.63,330.1 386.79,343.67 387.94,304.59 389.09,298.06 390.25,299.27 391.41,298.06 392.57,306.02 396.03,357.22 
		397.19,334.05 398.35,331.3 399.5,315.38 400.65,347.68 401.81,307.59 402.97,312.29 404.12,301.74 406.44,308.43 407.59,348.4 
		408.74,351.73 409.9,337.93 411.06,388.79 412.22,397.84 413.38,407.73 414.53,408.3 415.68,385.34 416.84,395.35 418,339.21 
		419.15,363.5 420.31,323.78 421.47,326.51 422.62,283.36 423.78,277.06 424.93,286.08 426.09,274.91 427.25,277.85 428.41,333.52 
		429.55,377.85 430.71,376.79 431.87,352.73 433.03,396.27 434.19,394 435.34,405.88 436.49,405.16 437.65,389.56 438.81,356.09 
		439.96,374.79 441.12,357.08 442.28,305.92 443.43,304.84 444.58,309.48 446.9,304.84 448.06,325.33 449.22,329.79 450.36,338.3 
		451.52,353.51 452.68,351.72 453.84,354.99 454.99,355.64 458.46,378.9 459.61,361.04 461.93,396.22 463.09,396.13 464.23,378.62 
		465.39,339.27 466.55,339.05 467.71,341.32 468.87,283.5 470.02,310.13 471.17,281.44 472.33,286.9 474.64,306.58 475.8,297.56 
		476.96,296.84 478.11,353.74 479.27,356.76 480.42,366.88 481.58,378.57 482.74,377.38 483.9,364.04 485.04,377.01 486.2,378.42 
		487.36,376.48 488.52,371.55 489.68,307.73 490.83,305.17 491.98,313.59 493.14,293.67 494.3,292.64 495.45,290.04 496.61,297.17 
		500.07,337.08 501.23,339.41 502.39,339.38 503.55,333.71 504.69,335.76 505.85,331.59 507.01,331.41 508.17,339.89 509.33,346.42 
		510.48,388.29 511.64,366.2 512.79,388.08 513.95,389.06 515.1,375.76 516.26,392.15 517.42,371.31 519.72,306.37 520.88,305.78 
		522.04,278.44 523.2,304.12 524.36,280.41 525.51,277.39 527.82,277.72 528.98,294.26 530.13,290 531.29,290.55 533.6,307.61 
		534.75,307.61 535.91,328.28 537.07,322.28 538.23,332.62 539.39,332.84 541.69,359.04 542.85,354.31 544.01,353.99 545.16,377.82 
		547.47,380.42 548.63,381.77 549.79,381.36 550.94,373.09 552.1,374.14 553.26,348.85 554.41,357.58 555.56,346.13 556.72,342.79 
		557.88,342.27 559.04,362.36 560.2,348.01 562.5,376.46 563.66,382.83 564.82,384.49 565.97,383.97 568.28,371.36 569.44,376.64 
		571.75,354.38 572.91,344.07 575.21,337.55 576.37,332.51 577.53,331.97 578.69,309.03 579.85,319.39 580.99,284.86 582.15,280.04 
		583.31,283.39 584.47,277.57 585.62,287.17 586.78,278.78 587.94,297.12 589.09,290.82 590.24,320.25 591.4,331.49 592.56,330.23 
		593.72,346.46 594.88,349.91 596.02,350.09 597.18,351.35 598.34,334.44 599.5,338.95 602.96,292.78 604.12,284.39 605.28,287.58 
		606.43,285.37 607.59,295.99 608.75,294.3 609.9,294.98 611.05,307.08 612.21,327.85 613.37,312.57 614.53,329.88 615.67,330.74 
		617.99,376.35 619.15,372.81 621.46,379.65 622.62,378.94 623.77,376.52 624.93,378.95 627.24,371.79 628.4,371.76 629.55,371.66 
		630.7,370.82 633.02,369.05 634.18,369.57 635.34,369.75 636.49,368.76 637.64,368.5 638.8,373.52 639.96,377.87 641.11,378.44 
		642.27,386.59 643.43,381.19 644.58,382.61 645.73,373.98 646.89,365.94 648.05,365.84 650.35,359.18 651.51,360.03 652.67,360.73 
		653.83,363.08 656.14,363.66 657.3,362.56 658.45,363.65 659.61,367.51 660.76,383.83 661.92,375.48 663.08,376.9 664.24,407.46 
		665.39,407.52 666.54,401.38 667.7,408.98 668.86,410.16 670.02,400.27 671.17,349.35 672.32,363.14 673.48,330.86 674.64,335.32 
		675.8,317.54 676.95,302.09 678.11,301.51 680.42,304.98 681.57,306.04 682.73,298.83 683.89,304.14 687.35,272.83 688.51,279.17 
		689.67,274.94 690.83,284.25 691.98,292.1 693.13,331.27 694.29,325.26 695.45,374.52 696.6,367.5 697.76,372.53 698.92,369.05 
		700.07,393.35 701.22,385.41 702.38,361.82 703.54,361.74 704.7,343.92 705.86,337.04 707,347.19 709.32,329.44 	"/>
</g>
</svg>
